<svg xmlns="http://www.w3.org/2000/svg" viewBox="0 0 282.67 242.18"><defs><style>.cls-1{isolation:isolate;}.cls-2{fill:#023f85;}.cls-3{fill:#2cad6e;mix-blend-mode:overlay;}.cls-4{fill:#005892;}.cls-5{fill:#ffed00;}.cls-6{fill:#89b858;}.cls-7{fill:#1574a1;}</style></defs><title>HPVico_logga</title><g class="cls-1"><g id="Lager_1" data-name="Lager 1"><path class="cls-2" d="M130.54,198.7,29.82,144.27,4.73,157.72a8.4,8.4,0,0,0,0,14.8l125.84,68a20.43,20.43,0,0,0,19.13.15L278,174a8.4,8.4,0,0,0,.17-14.81l-25.57-14.07-103.4,53.76A19.88,19.88,0,0,1,130.54,198.7Z" transform="translate(0.18 -0.81)"/><path class="cls-3" d="M252.57,145.09l24.34-12.66a10.35,10.35,0,0,0,.22-18.26l-24.29-13.36L211.31,122.4Z" transform="translate(0.18 -0.81)"/><path class="cls-3" d="M29.58,99.73l-24.3,13a10.35,10.35,0,0,0,0,18.23l24.57,13.28,41.26-22.11Z" transform="translate(0.18 -0.81)"/><path class="cls-4" d="M149.67,154.45a20.46,20.46,0,0,1-19.13-.15L71.08,122.16,29.82,144.27,130.54,198.7a19.88,19.88,0,0,0,18.63.15l103.4-53.76L211.31,122.4Z" transform="translate(0.18 -0.81)"/><path class="cls-5" d="M132.08,3.23,4.73,71.49a8.4,8.4,0,0,0,0,14.8L29.58,99.73,131.13,45.31a22,22,0,0,1,21,.11l100.72,55.39L278,87.74a8.41,8.41,0,0,0,.17-14.82L151.62,3.34A20.49,20.49,0,0,0,132.08,3.23Z" transform="translate(0.18 -0.81)"/><path class="cls-6" d="M131.13,45.31,29.58,99.73l41.5,22.43,61-32.69a20.47,20.47,0,0,1,19.54.1l59.69,32.83,41.53-21.59L152.12,45.42A22,22,0,0,0,131.13,45.31Z" transform="translate(0.18 -0.81)"/><path class="cls-7" d="M149.67,154.45l61.64-32L151.62,89.57a20.47,20.47,0,0,0-19.54-.1l-61,32.69,59.46,32.14A20.46,20.46,0,0,0,149.67,154.45Z" transform="translate(0.18 -0.81)"/></g></g></svg>